<svg width="119" height="22" viewBox="0 0 119 22" fill="none" xmlns="http://www.w3.org/2000/svg">
<path d="M44.3108 3.86323L51.4858 0.605554C51.6019 0.5532 51.6981 0.406826 51.6848 0.283956C51.6671 0.119416 51.5267 0.000816827 51.3608 0.000816827H2.61514C2.31328 0.000816827 2.03242 0.157879 1.88094 0.410031L0.0686667 3.44333C-0.0120509 3.57795 -0.0253222 3.7457 0.0487611 3.88353C0.129479 4.03204 0.282069 4.12072 0.453455 4.12072H26.2455L17.8586 7.92864C16.3615 8.60817 15.1319 9.70011 14.3048 11.0848L8.17912 21.3386C8.08514 21.4957 8.09841 21.688 8.21893 21.8354C8.30739 21.9444 8.44782 22 8.59156 22H19.2905C19.6355 22 19.9551 21.8216 20.1275 21.5331L30.5313 4.12179H43.1199C43.529 4.12179 43.9415 4.03311 44.3119 3.86429" fill="black"/>
<path d="M58.6652 4.09188L60.9463 0.380124C60.9541 0.0724134 60.6809 -0.0654152 60.4709 0.0296759L44.4722 6.91256C44.1891 7.04077 44.2842 7.45106 44.5971 7.45106H46.9158L38.6251 21.2841C38.4349 21.6015 38.6716 21.9979 39.0508 21.9979H47.4079C47.7529 21.9979 48.0724 21.8194 48.2449 21.531L58.6652 4.08975V4.09188Z" fill="black"/>
<path d="M71.5878 17.6312C71.4949 17.7861 71.3235 17.8822 71.1378 17.8822H62.8493L70.9133 4.38571C71.0062 4.23079 71.1776 4.13463 71.3633 4.13463H79.6518L71.5878 17.6312ZM62.2522 4.78424L52.4312 21.2874C52.2421 21.6047 52.4798 22 52.858 22H71.7205C71.9029 22 72.0832 21.953 72.2413 21.8654L79.8685 17.6023C80.0266 17.5136 80.1582 17.3865 80.2489 17.2337L90.0699 0.730579C90.259 0.413253 90.0213 0.0179286 89.6431 0.0179286H70.7806C70.5982 0.0179286 70.4179 0.0638725 70.2598 0.152553L62.6326 4.41563C62.4744 4.50431 62.3429 4.63145 62.2522 4.78424Z" fill="black"/>
<path d="M100.452 17.6312C100.359 17.7861 100.187 17.8822 100.002 17.8822H91.713L99.777 4.38571C99.8699 4.23079 100.041 4.13463 100.227 4.13463H108.516L100.452 17.6312ZM91.1159 4.78424L81.2949 21.2874C81.1059 21.6047 81.3436 22 81.7217 22H100.584C100.767 22 100.947 21.953 101.105 21.8654L108.732 17.6023C108.89 17.5136 109.022 17.3865 109.113 17.2337L118.934 0.730579C119.123 0.413253 118.885 0.0179286 118.507 0.0179286H99.6444C99.4619 0.0179286 99.2817 0.0638725 99.1236 0.152553L91.4963 4.41563C91.3382 4.50431 91.2066 4.63145 91.1159 4.78424Z" fill="black"/>
</svg>
